{
  "accessors": [
    {
      "bufferView": 2,
      "componentType": 5126,
      "count": 496,
      "max": [
        1.1555885076522827,
        0.9999999403953552,
        1.2205498218536377
      ],
      "min": [
        -1.1667237281799316,
        -1.6568982601165771,
        -1.2175780534744263
      ],
      "type": "VEC3"
    },
    {
      "bufferView": 2,
      "byteOffset": 5952,
      "componentType": 5126,
      "count": 496,
      "max": [
        0.9762651324272156,
        1.0,
        0.9762653708457947
      ],
      "min": [
        -0.9762652516365051,
        -0.01693151146173477,
        -0.9762653708457947
      ],
      "type": "VEC3"
    },
    {
      "bufferView": 1,
      "componentType": 5126,
      "count": 496,
      "max": [
        0.65625,
        1.0
      ],
      "min": [
        0.34375,
        0.3125
      ],
      "type": "VEC2"
    },
    {
      "bufferView": 0,
      "componentType": 5125,
      "count": 2496,
      "type": "SCALAR"
    },
    {
      "bufferView": 2,
      "byteOffset": 11904,
      "componentType": 5126,
      "count": 439,
      "max": [
        1.0,
        1.0,
        1.0000001192092896
      ],
      "min": [
        -1.000000238418579,
        -1.0,
        -1.0000004768371582
      ],
      "type": "VEC3"
    },
    {
      "bufferView": 2,
      "byteOffset": 17172,
      "componentType": 5126,
      "count": 439,
      "max": [
        1.0,
        1.0,
        1.0
      ],
      "min": [
        -1.0,
        -1.0,
        -1.0
      ],
      "type": "VEC3"
    },
    {
      "bufferView": 1,
      "byteOffset": 3968,
      "componentType": 5126,
      "count": 439,
      "max": [
        1.0000001192092896,
        1.0
      ],
      "min": [
        0.0,
        0.0
      ],
      "type": "VEC2"
    },
    {
      "bufferView": 0,
      "byteOffset": 9984,
      "componentType": 5125,
      "count": 2280,
      "type": "SCALAR"
    },
    {
      "bufferView": 2,
      "byteOffset": 22440,
      "componentType": 5126,
      "count": 439,
      "max": [
        1.0,
        1.0,
        1.0000001192092896
      ],
      "min": [
        -1.000000238418579,
        -1.0,
        -1.0000004768371582
      ],
      "type": "VEC3"
    },
    {
      "bufferView": 2,
      "byteOffset": 27708,
      "componentType": 5126,
      "count": 439,
      "max": [
        1.0,
        1.0,
        1.0
      ],
      "min": [
        -1.0,
        -1.0,
        -1.0
      ],
      "type": "VEC3"
    },
    {
      "bufferView": 1,
      "byteOffset": 7480,
      "componentType": 5126,
      "count": 439,
      "max": [
        1.0000001192092896,
        1.0
      ],
      "min": [
        0.0,
        0.0
      ],
      "type": "VEC2"
    },
    {
      "bufferView": 0,
      "byteOffset": 19104,
      "componentType": 5125,
      "count": 2280,
      "type": "SCALAR"
    },
    {
      "bufferView": 2,
      "byteOffset": 32976,
      "componentType": 5126,
      "count": 70,
      "max": [
        1.0,
        2.185356616973877,
        0.9999980926513672
      ],
      "min": [
        -1.000000238418579,
        -1.0,
        -0.030356600880622864
      ],
      "type": "VEC3"
    },
    {
      "bufferView": 2,
      "byteOffset": 33816,
      "componentType": 5126,
      "count": 70,
      "max": [
        0.987688422203064,
        0.7994696497917175,
        1.0
      ],
      "min": [
        -0.9876884818077087,
        -1.0,
        -0.9999902248382568
      ],
      "type": "VEC3"
    },
    {
      "bufferView": 1,
      "byteOffset": 10992,
      "componentType": 5126,
      "count": 70,
      "max": [
        1.0,
        1.0
      ],
      "min": [
        0.0,
        0.0
      ],
      "type": "VEC2"
    },
    {
      "bufferView": 0,
      "byteOffset": 28224,
      "componentType": 5125,
      "count": 156,
      "type": "SCALAR"
    }
  ],
  "asset": {
    "extras": {
      "author": "Andrea Horvath (https://sketchfab.com/ahorvath)",
      "license": "CC-BY-4.0 (http://creativecommons.org/licenses/by/4.0/)",
      "source": "https://sketchfab.com/3d-models/ghost-ff34b9a87dfb48b48c05809b6521eef5",
      "title": "Ghost"
    },
    "generator": "Sketchfab-12.68.0",
    "version": "2.0"
  },
  "bufferViews": [
    {
      "buffer": 0,
      "byteLength": 28848,
      "name": "floatBufferViews",
      "target": 34963
    },
    {
      "buffer": 0,
      "byteLength": 11552,
      "byteOffset": 28848,
      "byteStride": 8,
      "name": "floatBufferViews",
      "target": 34962
    },
    {
      "buffer": 0,
      "byteLength": 34656,
      "byteOffset": 40400,
      "byteStride": 12,
      "name": "floatBufferViews",
      "target": 34962
    }
  ],
  "buffers": [
    {
      "byteLength": 75056,
      "uri": "ghost.bin"
    }
  ],
  "materials": [
    {
      "doubleSided": true,
      "name": "lambert1",
      "pbrMetallicRoughness": {
        "baseColorFactor": [
          0.5,
          0.5,
          0.5,
          1.0
        ],
        "metallicFactor": 0.0,
        "roughnessFactor": 0.6
      }
    },
    {
      "doubleSided": true,
      "name": "lambert3",
      "pbrMetallicRoughness": {
        "baseColorFactor": [
          0.0,
          0.0,
          0.0,
          1.0
        ],
        "metallicFactor": 0.0,
        "roughnessFactor": 0.6
      }
    }
  ],
  "meshes": [
    {
      "name": "pCylinder1_lambert1_0",
      "primitives": [
        {
          "attributes": {
            "NORMAL": 1,
            "POSITION": 0,
            "TEXCOORD_0": 2
          },
          "indices": 3,
          "material": 0,
          "mode": 4
        }
      ]
    },
    {
      "name": "pSphere2_lambert3_0",
      "primitives": [
        {
          "attributes": {
            "NORMAL": 5,
            "POSITION": 4,
            "TEXCOORD_0": 6
          },
          "indices": 7,
          "material": 1,
          "mode": 4
        }
      ]
    },
    {
      "name": "pSphere3_lambert3_0",
      "primitives": [
        {
          "attributes": {
            "NORMAL": 9,
            "POSITION": 8,
            "TEXCOORD_0": 10
          },
          "indices": 11,
          "material": 1,
          "mode": 4
        }
      ]
    },
    {
      "name": "pCylinder2_lambert3_0",
      "primitives": [
        {
          "attributes": {
            "NORMAL": 13,
            "POSITION": 12,
            "TEXCOORD_0": 14
          },
          "indices": 15,
          "material": 1,
          "mode": 4
        }
      ]
    }
  ],
  "nodes": [
    {
      "children": [
        1
      ],
      "matrix": [
        1.0,
        0.0,
        0.0,
        0.0,
        0.0,
        2.220446049250313e-16,
        -1.0,
        0.0,
        0.0,
        1.0,
        2.220446049250313e-16,
        0.0,
        0.0,
        0.0,
        0.0,
        1.0
      ],
      "name": "Sketchfab_model"
    },
    {
      "children": [
        2
      ],
      "matrix": [
        1.0,
        0.0,
        0.0,
        0.0,
        0.0,
        0.0,
        1.0,
        0.0,
        0.0,
        -1.0,
        0.0,
        0.0,
        0.0,
        0.0,
        0.0,
        1.0
      ],
      "name": "42d3e7f2859247e69aadb8181e9e5d86.fbx"
    },
    {
      "children": [
        3,
        5,
        7,
        9,
        11
      ],
      "name": "RootNode"
    },
    {
      "children": [
        4
      ],
      "matrix": [
        0.0,
        1.0,
        0.0,
        0.0,
        0.0,
        0.0,
        1.0,
        0.0,
        1.0,
        0.0,
        0.0,
        0.0,
        0.0,
        -1000.0999755859375,
        0.0,
        1.0
      ],
      "name": "bottom"
    },
    {
      "name": "Object_4"
    },
    {
      "children": [
        6
      ],
      "matrix": [
        0.70732252633483,
        0.0,
        0.7068909701922312,
        0.0,
        0.0,
        1.0,
        0.0,
        0.0,
        -0.7068909701922312,
        0.0,
        0.70732252633483,
        0.0,
        0.0,
        2.901744842529297,
        0.0,
        1.0
      ],
      "name": "pCylinder1"
    },
    {
      "mesh": 0,
      "name": "pCylinder1_lambert1_0"
    },
    {
      "children": [
        8
      ],
      "matrix": [
        0.09041453152894974,
        0.0,
        0.0,
        0.0,
        0.0,
        0.09041453152894974,
        0.0,
        0.0,
        0.0,
        0.0,
        0.09041453152894974,
        0.0,
        0.1938120573759079,
        3.524724006652832,
        0.4939539134502411,
        1.0
      ],
      "name": "pSphere2"
    },
    {
      "mesh": 1,
      "name": "pSphere2_lambert3_0"
    },
    {
      "children": [
        10
      ],
      "matrix": [
        0.09041453152894974,
        0.0,
        0.0,
        0.0,
        0.0,
        0.09041453152894974,
        0.0,
        0.0,
        0.0,
        0.0,
        0.09041453152894974,
        0.0,
        -0.19634300470352173,
        3.524724006652832,
        0.4939539134502411,
        1.0
      ],
      "name": "pSphere3"
    },
    {
      "mesh": 2,
      "name": "pSphere3_lambert3_0"
    },
    {
      "children": [
        12
      ],
      "matrix": [
        0.09453217685222626,
        0.0,
        0.0,
        0.0,
        0.0,
        0.002506537826708714,
        0.006946612565132584,
        0.0,
        0.0,
        -0.08892062435396315,
        0.0320851215506807,
        0.0,
        0.004746828228235245,
        3.430936813354492,
        0.6145046949386597,
        1.0
      ],
      "name": "pCylinder2"
    },
    {
      "mesh": 3,
      "name": "pCylinder2_lambert3_0"
    }
  ],
  "scene": 0,
  "scenes": [
    {
      "name": "Sketchfab_Scene",
      "nodes": [
        0
      ]
    }
  ]
}
